<mxfile host="65bd71144e">
    <diagram id="VVISzraa19UV0Ff7gZJD" name="ページ1">
        <mxGraphModel dx="2118" dy="1185" grid="1" gridSize="10" guides="1" tooltips="1" connect="1" arrows="1" fold="1" page="1" pageScale="1" pageWidth="827" pageHeight="1169" math="0" shadow="0">
            <root>
                <mxCell id="0"/>
                <mxCell id="1" parent="0"/>
                <mxCell id="2" value="" style="shape=image;verticalLabelPosition=bottom;labelBackgroundColor=#ffffff;verticalAlign=top;aspect=fixed;imageAspect=0;image=data:image/png,iVBORw0KGgoAAAANSUhEUgAAAyAAAAHgCAYAAABdBwn1AAAgAElEQVR4Ae3dO7LstrUA0Ds2D0FTcOjQU9AQFDq9oUOFThU6VOjUwzivtlxbgvBAEvyh2Y3VVV0kQXwXjrr2Puxz9e3LiwABAgQIECBAgAABAoMEvg0axzAECBAgQIAAAQIECBD4koD4ISBAgAABAgQIECBAYJiABGQYtYEIECBAgAABAgQIEJCA+BkgQIAAAQIECBAgQGCYgARkGLWBCBAgQIAAAQIECBCQgPgZIECAAAECBAgQIEBgmIAEZBi1gQgQIECAAAECBAgQkID4GSBAgAABAgQIECBAYJiABGQYtYEIECBAgAABAgQIEJCA+BkgQIAAAQIECBAgQGCYgARkGLWBCBAgQIAAAQIECBAYkoD897///Yr3zz///PX9+/fT6j/++OPXr7/+erqfVgc51zjGGDHneP/0009fMe5f/vKXr2/fvv12bLUfVRZzWHuFc9SJdVzx2hrvijH0QYAAAQIECBAg8PkC61HsgfVnoB7BegSt8f773//+W/AeQXEE82VQnHXKY9RZekVSEHXzWLbrOW/1m0nFUvtYS6wr5vXLL7/sSn6W+lwrb82xLov2a6+4H3P+61//ulat+97WeL0dhZ/XnwXK/x7+fMcVAQIECBAgQODzBNaj2APrjWAq39F8K3At70e7uF4LUiOJiYRh7VX2uVYv78W4+bQjzstXq68oi/o9r1b7tXa99dfqZcIU44RVXG+9or+z760xIiGKMSIpqp232i7dj6Qw3rHGtfdaUrvU9x6PpT56yjMB7qmrDgECBAgQIEDg3QUuT0BqkAji1l7l/XyqsVY/gtetr3GVfa71Vd7L5KcOVOu+IojeSoDKfuv25b3WeW/9pXqRvJXzS9OY95nX0nh7+wzf6CvetfXevqJ+9tVz7E0acx49fWadbLP3mD93Z/dn77jqEyBAgAABAgReJbCeHRyYVQZkW8fsOurlKxKLta8MZbCW9bfGqO9nu6VjfFWsnE/UK68zmN8TyJbtl8Yty9fqx72ld/QR84rko366EK7RLtZ39LU2r719xvxinj1PZvb23arf2tdWvVeU5d7s+Zl6xTyNSYAAAQIECBC4SuCP6P+qHqugvQ5c164j+Vj7rXgGaznVuq+18rW6ce/MO8dtHY/02+qnLMtEqCwLtwjol8bLNhH4t4LdpXZ7ysv5lOet8cr7S+d1IrVUb608k9b42XniK/Yj3l4ECBAgQIAAgVkEHpOAZKC4FnRmMJybE9etV6u8VdZqG2UxhwgK8zfnEbzG9drclvq6ozy/xpR9R+LRCmLrNUciEPVaCUFdN/uOY3ytay0xjDpL7XNfY9ytPsoxY45LfZb1ts4zKduq94r7ucanJkevMDEmAQIECBAg8PkC7Qj+5LrLwLE8j26Xruu/XainkEF32T7O97zrPlvXZfJRzjeTkFbw3urnzrJ4UlQ6xJxa8yrrbM1nqW56lP3HXtRB81L7GDfaRgISdXq/Bhb1433mFePGmHsSn6h/9t075zCMsZ6S2PbOWz0CBAgQIECAwBmBSxOQvYFbTDza5Cv+EHfpj3GjXiYhWb9sm2VxbJW3yso2cZ5JUBlcl+3iflwvzTH7izpXvbPPPOYThei/DOZ7x8t+6mO0j1cmC5lwxBilRwb15djRLtvX/ZbX4Rb1su/yXnkefffUK9u0ziNR25vExLhn3625tMpinPpvntJIUtISU0aAAAECBAh8gsAf0f+Fq4nAKl/leZRtXUfAWAdfkXhkwFu2L89zvNYYS2Vlm/waUx0c12PE3GIuMc/e36xn4lSvqxy/9zySgQzQI1iNeWRSUPdRz72+ruvHda4v6kZwnO55L8bbSsBa/WZZ7ZvlecynAmXSk/f2HO8K5MMlflbOvnLPIqktX+EfxvH2IkCAAAECBAh8osAfmcKFqysD3fI8hti6jmC9FXxm8F62j/M979YSM+Dd00/WzUBxK6jOhKU1/t6yGDuD12gb81/6O4eoW77q6/JefZ5JUyYbGRiXe5MJUO5N3cfe69yLswF+zj3Wm/PfO5el+lf1ufYzkft71mFpDcoJECBAgAABAq8U+HOEetFMykC3PI/ut64jmK2/llJOq27fCv7rOmX78jyD6gz4ynt5vtRXlkewu/WKulcEk9FH/mY8x8+x47rnnfV7juES42WwHAlCmJXvnFNrH3rGyDoxRsw/jmdeuZeReGQiEj9PMeezr+gj5tiz52tjZT9lMlfXz2Ts7Fh1v64JECBAgAABAq8WuDwB6QmCo06+yvO1sta9COQiYI0AMwPgOK4lMNlPfWzNI+rsLa/7zYA4+ul9t4LODFpznfW86uusX/ZV18m57pljJBz1O8aIvnNu2W/PMdpEkhPt1wLynr4yaC+TmFxbjHFkfuW4+TdAZ/vJecYerb3SZaveWh/uESBAgAABAgSeJvBHJnDTzJaC3hwu72dQF8FWBF5Lr6xf3s8AOALjCD6PfO0m+t37LuewdB5ziXn1vmL+9d8FZNtyXS2HrBfHCHLjHZY9AWzUqd9lf/V49Ryzbdlm7Tzqh0ua1/2ttW3dy75a1jFWBvP5c9bqY6ss9mbtZ3Orfd6PNedTmZhP/PzGO+ae60iXOJYJVfbhSIAAAQIECBB4V4HhCUgGqhlwRoAVrzLwWgsSs34NXgaZEbDF9Z7XUr97y+sxIwnYM5cYr6f+0rxi/PDLQDkC294kJOee7cvAtxwv9i76jPfaXmV/5THaRr/RX7xbCUNZf+s81xd9xfnSq/z5WKu31D7mvTXGUtsoj4Qj17x0DM/wiJ+ZmGPMOZLOM+Ouzck9AgQIECBAgMArBC5PQCJoincEUPGO4KlMLuI6A61YcFzveS3VzzHimOcR6EbgGPPZei31u7d8a5y1+zHPpfHqdkv1MlAuE4PwCPO4t/XKPSuftkSb1nhZN/pfe8W6yqQj+oo2Pfuy1G+sJdYUfcWxXO9Smxgv2/TUz35ynWVClvd6jzHfSEJi3fGOPuMdc9pyiDlHUuJFgAABAgQIEPgEgX3Rf8eKIyDMdwRsGWxFANYKtKLunldZP4LI/A1xBGllgB1j5VeQok3cj7ksvcp+yzp7y8u2e88jIO39+5V6XhngxjpbwXVYRJv86k89t2gfbeN+q309XrYP59jnrXnHPkW9co+yjyPHGDfmG2Z7Xvlz0dMm1xZrP5N89IylDgECBAgQIEBgFoF90f8NKkuB7dJQWT8C2QwMt4LaCKjzay1r/UZ/e95LfW2Vx3xjPmWgvzegTocYK/qJYDz6XHtFvaWAPe6tOZbjtcaI+X/aK5KqWPeS2aet13oIECBAgAABAiMEXp6AjFjkE8eIpzGRNGTC05NAPHEd5kSAAAECBAgQIEBgj4AEZI+WugQIECBAgAABAgQInBKQgJzi05gAAQIECBAgQIAAgT0CEpA9WuoSIECAAAECBAgQIHBKQAJyik9jAgQIECBAgAABAgT2CEhA9mipS4AAAQIECBAgQIDAKQEJyCk+jQkQIECAAAECBAgQ2CMgAdmjpS4BAgQIECBAgAABAqcEJCCn+DQmQIAAAQIECBAgQGCPgARkj5a6BAgQIECAAAECBAicEpCAnOLTmAABAgQIECBAgACBPQISkD1a6hIgQIAAAQIECBAgcEpAAnKKT2MCBAgQIECAAAECBPYISED2aKlLgAABAgQIECBAgMApAQnIKT6NCRAgQIAAAQIECBDYIyAB2aOlLgECBAgQIECAAAECpwQkIKf4NCZAgAABAgQIECBAYI+ABGSPlroECBAgQIAAAQIECJwSkICc4tOYAAECBAgQIECAAIE9AhKQPVrqEiBAgAABAgQIECBwSkACcopPYwIECBAgQIAAAQIE9ghIQPZoqUuAAAECBAgQIECAwCkBCcgG37dv376Ovje6dpsAAQIECBAgQIDAdAISkI0tP5p8RDsvAgQIECBAgAABAgT+LCBK/rPHy67+85//fHkz8DPwmp+Bl/2Hb2ACBAgQIDChgATkIZsu8HxN4Mmde/wMeBEgQIAAAQLjBCQg46xXRxIIC4T9DLzuZ2D1P043CRAgQIAAgUsFJCAbnKP+BkTw+brgkz37jY8BtwkQIECAAIELBSQgG5gSEMGpBOXzfwY2PgbcJkCAAAECBC4UkICcwMzk5EQXvzcV5H5+kGuPn7vHv/+H6IQAAQIECBC4XUACcoJYAvLcgFKwb2/2/Ayc+BjQlAABAgQIENgpIAHZCVZWnzUB+fXXX7/+9a9/fX3//v3rxx9//Prb3/72+/sf//jH188///z173//+7Z/VviXX375+uc///kVY5Vjx1xiTjG3mOOeAFTd/QlL7EPrZ+Ad96D879o5AQIECBAgcK+ABOSE71MSkAj260TgjoA6gvoILsugf+085nRlIhKJzdp49b2Y6ysSkXovcl579yTmnm2vPO6dR10/ErylNdbzjD2o229d133cdV3O48THwB9Nr/6fj17d3x8zdUaAAAECBF4qIAE5wf+EBCSCwVaAVgZXV5wvjdMauy47EoSWc45AvDfgrceO65h72d+d52tOe8d9YgJSP3VqeddlexPRuv1d1+V+nPgYuK+pBOQ+Wz0TIECAwEsFJCAn+F+ZgERwuhYMlsHV2fO9Tx5aAWPM9cg84glKq7+9ZbGGI+PvabOVMOzpK+petfbaau88sv7az1s9Rus6fLKvtWOr7R1l5Rx2fwxEclC+o4NMGOry7LxVvrcs+3IkQIAAAQJvLCABObF5r0hAIojrSQjK4OrMeXzPvxX8xW+147f9dVAZQfPS17T2PgmJvpeefIRB6+tda+Pf/SRkad3pt3cf1p6mZJ9HjnvnEfWX1tb6GYiy1r5FWc/YR9Z0pE05l8MfA5l0RAd5nselsiwv67XK8n4es04cvQgQIECAwBsLSEBObN7IBGQtsG4FX2Vwdea81XdPIhHzbbVtJQ1L82v9xj2C2DrpabVfGr+nbau/rbKl8UqDrT7q+09JQFrz+Omnn1b3YSl57HkSVZrddR7/iEHpfehjoEwMooO8zuNSWQ5W1su6ZVmex7F8Z3tHAgQIECDwpgISkBMbNzIB2RuIlcHV0fPWb733fJVqKXDtmU8roO9NPrL/1tObnuQp2+85tn7jX+/Znv6ibsvvrgRqbW712nr3IeZaG8T12lh33GslsnUivPtjIJODsmGW5THu5Xkes35cb5Xl/TxmW0cCBAgQIPDmAhKQExv4hAQkfhN9R5B3VfDYml8d/LWCzla7CMhbddfKWv1cHcS3EoUr9qTV79VzX7OLe62v+/XsX/bbSmKP7GP2t/fY+jmOn4m6n90fA5lA5DE6yEQhy/I6O2+VnynLfh0JECBAgMCbCUhAHrJhdUBUX9cBbfwWOgO5+l5c1+33XrcCz56vz9TjtILonHddN69bQWOsN+/vObaegmyNv6f/1lxbdkf2pGW3Z25X1K1/tvY+QWo9yWolAFfMtdVHay9a+3/px0CdeFzauc4IECBAgMD7C0hAHrKHreCpLMtAsEw88n7eK4957+jxqicHrQB9K4htBd5Hkp9Y+5Hx95jVv+HPRKncizzf02/UbQXPe/s4U7+1D+G5t89cf3nc28fR+rEf5bhx3urrIR8DpkGAAAECBKYQkIA8ZJtbQVFZFt9jX/rqSx1gLQVZZX9r562gPQPrtXZL9/bOrw7qo/3S2pfGLMvr8c+spey39dv9eOISdeox47ps23Pecuhpd1WdOgk9+uSi7ufsfvaur7U/9R+fZ18P+RgwDQIECBAgMIWABOQh25yB0JHjFcFuOe6ewK1st3R+9fyWxlkqv2v8+rfr5R/oXzHmKxOQVhLa+urSkvkTylt+S4nsQz4GTIMAAQIECEwhIAF5yDafCdiuCHbL8VtfvTkTfF49v3KuPed3jN8yKr+edMWYdQB91ZObHrOt9fX08eo69R6sPcF5yMeAaRAgQIAAgSkEJCAP2eYzwVodaMX1mf7iayp1n0u/Oe4Zp+7r7Px6xizrXD1+z9OBK8asE5C4Ltd153k99ug9O7u2VgK1lkQ/5GPANAgQIECAwBQCEpCHbPOZgOuKYLccvxV8lr/dL+tunbeC9ZGBdGv88qtSW/Nv3a99Wk8mrtiTepyRbvX8R47dMt9b1vq7k7U+HvIxYBoECBAgQGAKAQnIQ7Z5LTjaulcHi3G91WbU/bv/GdytdbR+E370X9SKsVp/H9N6OnTFntR9jEoCWknb2tODrT0Yfb+1R1tJ50M+BkyDAAECBAhMISABecg2nwnS6kD1SQlIBH71/FoB+5n1r7Wt/1A85nJm/Lq/paSgXvORPan7qMeKRCGSqdo46p1JGFoBfP7rXmvWT7nX+grh1vwf8jFgGgQIECBAYAoBCchDtvlM8FYHqkeC3TPjL7Vt/Sa99XWlpfZny1v/H40z47eepsQaW/O8Yk/qPvKfkI0xI8mo77eujzzt2bPO1tpfXdZy2JrTQz4GTIMAAQIECEwhIAF5yDZvBUhr948EXGv9XXWv/s18zPPMb+b3zKuVfMT4R59+tJKptbVcsSd1HzFezL9+ClPXq6/j7yGWEqWWacuu1T7mEnXrv7c4+wSmNafestZX/jJxW+vjIR8DpkGAAAECBKYQkIA8ZJvXgqOte3XAGddbbe6+3/ot+pmnDz3zjSA5AtA6IE6fI08Dctz6icPWWnLM8ph99R7LtnHeSujqOkvXMd9WEtGaS73W6LOsF4nHknE9/hnzcsze85ZRT9L5kI8B0yBAgAABAlMISEAess29AVarXh301QFjq82dZRHwtea09T383jm1+t4qOxMIt9azFdS25tO7vqzX6qMsi0ShnkckGbHWsl6eR3Cefa8d1xKQVmKZ/S8d9yQ/a/Pauhdrr+ewlShmnw/5GDANAgQIECAwhYAE5CHbnIHQkWMddMX1kX6uaNMK1mM+EdRe0X/00VrvUln8pr4O0vfOI4LYsv+etZT183zPuK1gOvuJ+WytKdrX8472a18by/m12sW9pcQm57V2jD5jTjnGHcdWctSbeD7kY8A0CBAgQIDAFAISkIds85mArBX4nenvaNul5COSgKN9ttq11luXRcB7xROXVlDbE0jX84nr1lqWypYSkD2B/FIfS2NmeWvu9d9WxJ62fONnoPUEJfqMuecYdxxbXwvbStRyHg/5GDANAgQIECAwhYAE5CHbnIHQkWMrYDzSz5k2rUA9g86egH3P2K31tsoi4O35jf/S2K0Avre/1nyWxmmVt8aOPnsD6uyz9dRi66lAa+5l2Vb7GHspGe15epRz33Nsjbcn4XnIx4BpECBAgACBKQQkIA/Z5j3BVl23DA7zvK5z53UryI157Plt/Z755Rp7jzGPvYF7zKf+Tf6eJzmtue1ZYysBORq813PZCszr+uV1T/KR62wlBdHXkb3IPpeOrZ/B3mQx+vQiQIAAAQIExglIQMZZr460FFj1lJcBYp73tLuiTutfHYo53JV8LM05AvYIbCMQjbHToTzuCXxbwfOe9uW4eb4096XySDjKtSzV2ypv7dHaWnK+9fFIAtT6nwL2/jH81rrK+6VTzjt+Jso6a+er/3G6SYAAAQIECFwqIAG5lPN4Z2vB0da9DLjK41abK+63AtuYwx0B5t75Ln0lbC3wLseoA9q9wXe5F3le9r/nPALpPcF03XfLYu3pQM63Ph6dQ91PXB/tq15bXLeSxT1Pq6IPLwIECBAgQGCcgARknPXqSK3AqresFeD1tj1abyn52PMVnaNj97ZrBaY9wW8rYO8dM+u9Yk9y7PoYwX49n7WEqq4b12eSytZTkNYfsNfz7r1u9b+WYLX6Xf2P000CBAgQIEDgUgEJyKWcxztrBUW9Za2AsbftkXpLyceVQeWRebXatJKJteC7FazvDWZjHqP3pLX2LGutae0JQWvuZ/Y22tZ99vzfyXP+W8e677je+4Tl+H+5WhIgQIAAAQJ7BSQge8Vuqr8VZK3dbwVga/XP3FtKPnq/2nRm7KNt669TrQWokZyUnmuB+tp8yj7yfK3+3fdyDuVxaczaINrsDejLvlsJ0JknKmXfradcsd9lnZ7zm/6z1i0BAgQIECDQEJCANFBeUdQTJC3VKYPKPF+qe6a89S8NRbB3Jjg9M5/etq2nIEtPNdJv1LF3DWfrtdaz1GcrAVmq21u+Z/zePqNe6+tXR74G+Ir/5o1JgAABAgRmFZCAPGTn9wRddd27grtynNZvmmPcJz/5yPm35r70NayW5Z1lOce7j601LI3ZSjSX6vaW7xm/t8+o1+r3yM/kQz4GTIMAAQIECEwhIAF5yDbvCbrquq0grK5z5jqecLS+xnQk0DszjzNta6Olr+nU9e6+PrOmPW1b61hq33pitFS3t3zP+L19thLLGKe3fVnvIR8DpkGAAAECBKYQkIA8ZJvLYGjv+R3BXTmH1ldyjnzNpexz9HmvUavenWWjHOo1rP1tS+tvNs7Osx4/rs/22fr61dE/bn/Ix4BpECBAgACBKQQkIA/Z5jPB2B3BXc6n9VvmteA12x09tsa74g+We41a9e4sO+q0p10roVj6Clr2W685y48e6/7u2tOjT+Ue8jFgGgQIECBAYAoBCchDtvloYBft6uAurs/0V7ZtffXqzj86bwXLV6znTqPSK8/PjNf6CtTSH83neGvH1j+Du9VfJJnlGs7seWtPtxKgtfXEvVaieubn5CEfA6ZBgAABAgSmEJCAPGSbtwKutftloJjna/V777UC4bOBY8/YuYbyeHUAfMVv4NfWUs49z9fql/dawfUZ99ZXlbaeFNR7v5WwlPOvz+u+wuNMf9F/a01n9vQhHwOmQYAAAQIEphCQgDxkm+ugbc91BrjlcU/7pbqjn37kPCKQLNcS51sBc7ZtHVsB/d1/w1LPP65bc1sqO9u+7PdIX/VTizPBfWs/zySUsbbWms4kNQ/5GDANAgQIECAwhYAE5CHbXAaMe89bwdjePur6raD9zr/9KMdv/cb8zBOAaFsbnUloyrkundfjxfVS3VZ5K2g/Muczlld8DatOZMLh7M9R62cz+j2T1DzkY8A0CBAgQIDAFAISkIdscysI7S07G+y2xmkFwGd+w9waY62staYjAWYrAF76J3jX5rP3Xmv+e/poBdlHnkK0nmL1JjL1HI4kgXf8HLW+fnV2Tx/yMWAaBAgQIEBgCgEJyEO2eU9wWtc9G+zW/cV1q88jCUCr756y1v8Mb28AHvNtBeAjEqmWX8+6yzqtuccflJd11s5bT372Pn2on4LssWvt4dlEIdbbcjn6z++m30M+BkyDAAECBAhMISABecg2ZyB05HhFsFuO2/pXk1pjnC0rx2ydtwLN3iQkfnvfar83AG/Nq6esZdPTrqyztA89TzBaTwliTnuTyPopSPTRk4S0ko9o2zP30qA+b80n+t2TmNV9xrUXAQIECBAgME5AAjLOenWkVlDUWxYBWP3ubduq1/rNed3/FdetscuypWAzEosIgutgOq6jzdL8o13dphzvyvOWz5H+l9YS5XUwH2sLl1biFfPpSRxac2wlE5HI1eNH2yirn5qkRfTT6n9PWWsu0f/ZfV39j9NNAgQIECBA4FIBCcilnMc72xOE1XUzwCuPdZ0912U/d573zCkC2ivmEEF5K2DumcOROq05H+kn2rT+jqLV/1rZ2eB/KRFaG7O81/vkasuoldxc8VTr+H+5WhIgQIAAAQJ7BSQge8Vuqr8VeK3dLwO9PF+rv3YvfpOcfdx9XJtHeS8Sh6Xf6vfMMQLUs78hL+fTc96aV0+7pTpnkpCjTz7quSw9fWittSw7+/cZOY+ln82zyVX070WAAAECBAiME5CAjLNeHSmDrCPHMtjL8yP9RJulvzvIfq887p3j3gA4kpargu+9c2057e2jrr/29arWeHckXnuSwRj/yqdOSz+bV4yx+h+nmwQIECBAgMClAhKQSzmPd1YHm67/s/j3AhGIxm/VI8AtA+9IOOKrQhGoXxGUPnUPYm2RjLWeiuT6737iE3No7UHMKeb2bv7H/8vVkgABAgQIENgrIAHZK3ZT/acGu+a1nAix+Rybm/6z1i0BAgQIECDQEJCANFBeUSSY/Zxg1l6+316+4r95YxIgQIAAgVkFJCAP2XlB6/sFrfbsc/bsIR8DpkGAAAECBKYQkIA8ZJsFs58TzNrL99vLh3wMmAYBAgQIEJhCQALykG0WtL5f0GrPPmfPHvIxYBoECBAgQGAKAQnIQ7ZZMPs5way9fL+9fMjHgGkQIECAAIEpBCQgD9lmQev7Ba327HP27CEfA6ZBgAABAgSmEJCAPGSbBbOfE8zay/fby4d8DJgGAQIECBCYQkAC8pBtFrS+X9Bqzz5nzx7yMWAaBAgQIEBgCgEJyEO2WTD7OcGsvXy/vXzIx4BpECBAgACBKQQkIA/ZZkHr+wWt9uxz9uwhHwOmQYAAAQIEphCQgDxkmwWznxPM2sv328uHfAyYBgECBAgQmEJAAvKQbRa0vl/Qas8+Z88e8jFgGgQIECBAYAoBCchDtlkw+znBrL18v718yMeAaRAgQIAAgSkEJCAP2WZB6/sFrfbsc/bsIR8DpkGAAAECBKYQkIBMsc0WSYAAAQIECBAgQOAZAhKQZ+yDWRAgQIAAAQIECBCYQkACMsU2WyQBAgQIECBAgACBZwhIQJ6xD2ZBgAABAgQIECBAYAoBCcgU22yRBAgQIECAAAECBJ4hIAF5xj6YBQECBAgQIECAAIEpBCQgU2yzRRIgQIAAAQIECBB4hoAE5Bn7YBYECBAgQIAAAQIEphCQgEyxzRZJgAABAgQIECBA4BkCEpBn7INZECBAgAABAgQIEJhCQAIyxTZbJAECBAgQIECAAIFnCEhAnrEPZkGAAAECBAgQIEBgCgEJyBTbbJEECBAgQIAAAQIEniEgAXnGPkWluyMAAB+0SURBVJgFAQIECBAgQIAAgSkEJCBTbLNFEiBAgAABAgQIEHiGgATkGftgFgQIECBAgAABAgSmEJCATLHNFkmAAAECBAgQIEDgGQISkGfsg1kQIECAAAECBAgQmEJAAjLFNlskAQIECBAgQIAAgWcISECesQ9mQYAAAQIECBAgQGAKAQnIFNtskQQIECBAgAABAgSeISABecY+mAUBAgQIECBAgACBKQQkIFNss0USIECAAAECBAgQeIaABOQZ+2AWBAgQIECAAAECBKYQkIBMsc0WSYAAAQIECBAgQOAZAhKQZ+yDWRAgQIAAAQIECBCYQkACMsU2WyQBAgQIECBAgACBZwhIQJ6xD2ZBgAABAgQIECBAYAoBCcgU22yRBAgQIECAAAECBJ4hIAF5xj6YBQECBAgQIECAAIEpBCQgU2yzRRIgQIAAAQIECBB4hoAE5Bn7YBYECBAgQIAAAQIEphCQgEyxzRZJgAABAgQIECBA4BkCEpBn7INZECBAgAABAgQIEJhCQAIyxTZbJAECBAgQIECAAIFnCEhAnrEPZkGAAAECBAgQIEBgCgEJyBTbbJEECBAgQIAAAQIEniEgAXnGPpgFAQIECBAgQIAAgSkEJCBTbPPnL/L79+9f8fYiQIAAAQIECBB4toAE5Nn7Y3adAt++ffuKtySkE0w1AgQIECBAgMCLBCQgL4L/xGEzCdh7PGvxww8//JZ8xLheBAgQIECAAAECzxYQsT17fx47u0wyyglm2d5j2cfe83jisWe825+Q9CRBPXX2QqhPgAABAgQIEHgTAQnIm2zU06aZQX85r1ZZeb8+31u/bh/X2UfvMZ6W3PrqSS566tw6SZ0TIECAAAECBF4nIAF5nf1bj5wBf7mILNt7LPvYc16Os9aut95aH817kUjkOyrkeZlgZFl2kNdrdbKuIwECBAgQIEDgAwUkIB+4qSOWlEF9OVaW7T2WffSel2Ostemtt9ZH816ZQJQVyvIz52WfzgkQIECAAAECHyQgAfmgzRy5lAzsyzFbZeX9+nxv/Wjf+puPut+8zv7jeMsr+q37bl3X9co6eS+Pt0xUpwQIECBAgACB5wjcFJk9Z4Fmco9ABvdl762y8n59vrd++a9dZds81n9cnuVxvP1VjnHm/PaJGoAAAQIECBAg8HqBAdHZ6xdpBtcLZIBf9pxle49lH63z+qlH+YfkZVKSSUg5fqu/S8ryiUWZcGTHZdlSvZ462Z8jAQIECBAgQOCDBCQgH7SZI5eSQX45ZpbtPZZ9tM7LBCSTjLJeeb8cu6zjnAABAgQIECBA4BkCEpBn7MPbzSID/XLirbLyfn2+t37dvrwun4REv14ECBAgQIAAAQLPFBCpPXNfHj+rVvKQZXuPZxdbjtd6QnK2f+0JECBAgAABAgSuE5CAXGc5VU8Z9JeLzrK9x7KPPeeeeuzRUpcAAQIECBAg8AwBCcgz9uHtZpFJxismvvQ3HzmnnuMr5m1MAgQIECBAgACBry8JiJ+CQwI9Qf6ROmuTqZ94HOk/26yN4x4BAgQIECBAgMB9AhKQ+2w/uucM5K8+1mhLTzvK8rrN2nXOd62OewQIECBAgAABAvcJSEDus/3onnsD+Va9vX8onn3EE5DyleVl2db5kTZbfbpPgAABAgQIECDQLyAB6bdSc0OgFdzXZeWTi95EZKle3ffG9H67faRNT7/qECBAgAABAgQI9AlIQPqc1NoQyMA+juUry8uy+m85ynt7zlt9b7U/0marT/cJECBAgAABAgT6Bf4cLfa3U5PAbwLlE40I7uunFUsB/1a7Ht6lvtfaHmmz1p97BAgQIECAAAEC+wQkIPu81C4EepKIrYA/78exTl6KoZqn2bZ5c6HwSJuFrhQTIECAAAECBAgcEJCAHECbvUmdeERQv/TqCfizzlo/rf7LdnvPW/0pI0CAAAECBAgQuF9gOXK8f2wjvKlAmYDU/zJVvaRMDOry+nqrn7p+XGffR46t/pQRIECAAAECBAjcLyABud/4I0eIJKTnK1OZHNyBcKTvI23umLs+CRAgQIAAAQKzCkhAZt156yZAgAABAgQIECDwAgEJyAvQDUmAAAECBAgQIEBgVgEJyKw7b90ECBAgQIAAAQIEXiAgAXkBuiEJECBAgAABAgQIzCogAZl1562bAAECBAgQIECAwAsEJCAvQDckAQIECBAgQIAAgVkFJCCz7rx1EyBAgAABAgQIEHiBgATkBeiGJECAAAECBAgQIDCrgARk1p23bgIECBAgQIAAAQIvEJCAvADdkAQIECBAgAABAgRmFZCAzLrz1k2AAAECBAgQIEDgBQISkBegG5IAAQIECBAgQIDArAISkFl33roJECBAgAABAgQIvEBAAvICdEMSIECAAAECBAgQmFVAAjLrzls3AQIECBAgQIAAgRcISEBegG5IAgQIECBAgAABArMKSEBm3XnrJkCAAAECBAgQIPACAQnIC9ANSYAAAQIECBAgQGBWAQnIrDv/Yev+/v37V7y9CBAgQIAAAQIEni0gAXn2/rz17L59+/YV7xGvHEsSMkLbGAQIECBAgACB4wJjosPj89PyjQUyKbh7CT/88MNvic6oZOfu9eifAAECBAgQIPDJAhKQT97dF69tRAISTzxynJ6jJyQv/qEwPAECBAgQIDC9gARk+h+B+wAyIbhvhK9dyUfMJ56WeBEgQIAAAQIECLxOQALyOvu3HTkTizuOe1DK8dfa9dZb68M9AgQIECBAgACBawQkINc4TtVLGdBffd4LWY671qa33lofu+6Vf3Rfnu/qRGUCBAgQIECAwOcKSEA+d29fvrIM/q+cSOtvPpb6z/Hj+JLXq8Z9yWINSoAAAQIECBDoE3hRZNY3ObXeWyATgKtWUf5rV9l3Hus/Ls/yON76iv7zHQPleFlWXpcTyfKyzDkBAgQIECBAYAKBm6OzCQQtcVEgk4DFCp036qce5R+Sl0lJJiE57pDko1xDJh1ZVicZeZ3HrOdIgAABAgQIEJhIQAIy0WZfvdQy0D97vja3MgHJJKOsX94v51HWueW8lUiUZeV5TCCv83jLpHRKgAABAgQIEHi2gATk2fvz6NmVwf7Z87MLLZ+ExFyGvOpx4rosK89jQnmdxyGTNAgBAgQIECBA4FkCgyK1Zy3abK4RyKRjqbet+9Gup85S/1mefcSx9YQk691yjGQi3zFAnVxsXd8yKZ0SIECAAAECBJ4rIAF57t48fmYZ+C9NdOt+tOups9T/S556LE2mt7xOSHrbqUeAAAECBAgQ+BABCciHbOQrlrGVPGzdjzn31KnXtvQ3H9lXz7Hu0zUBAgQIECBAgMAYAQnIGOePHCUD/aXFbd2Pdj11sv/6iUe2PXLMPh0JECBAgAABAgTGCkhAxnp/1GgZ+C8taut+tNuqs/S0oyxfGr9VvjVeq40yAgQIECBAgACB6wQkINdZTtfTVjC/dT/A9tSJJyDlq6dtWb93vLqNawIECBAgQIAAgesEJCDXWU7X01YCsHU/wHrqLP3LVj1t60050qbuwzUBAgQIECBAgMBxAQnIcbvpW24F8/X98mtTeS+PRzCPtD3S5sjctCFAgAABAgQIEGgLSEDaLko7BLaC+db9LCuPS084tqaQfWzVK+8faVO2d06AAAECBAgQIHBOQAJyzm/q1lvB/Nb9s3hH+j/S5uw8tSdAgAABAgQIEPhDQALyh4WziwXuDvaz/yPHi5eqOwIECBAgQIAAgU4BCUgnlGr7BTIx2N+yr0X2f+TYN4JaBAgQIECAAAECVwtIQK4W1d/vApkY/F5w8cmR/o+0uXjauiNAgAABAgQITC0gAZl6+y2eAAECBAgQIECAwFgBCchYb6MRIECAAAECBAgQmFpAAjL19ls8AQIECBAgQIAAgbECEpCx3kYjQIAAAQIECBAgMLWABGTq7bd4AgQIECBAgAABAmMFJCBjvY1GgAABAgQIECBAYGoBCcjU22/xBAgQIECAAAECBMYKSEDGehuNAAECBAgQIECAwNQCEpCpt9/iCRAgQIAAAQIECIwVkICM9TYaAQIECBAgQIAAgakFJCBTb7/FEyBAgAABAgQIEBgrIAEZ6200AgQIECBAgAABAlMLSECm3n6LJ0CAAAECBAgQIDBWQAIy1ttoBAgQIECAAAECBKYWkIBMvf0WT4AAAQIECBAgQGCsgARkrLfRCBAgQIAAAQIECEwtIAGZevstngABAgQIECBAgMBYAQnIWG+jESBAgAABAgQIEJhaQAIy9fZft/gffvjh6/v373/qMK6/ffv2/8r/VMkFAQIECBAgQIDAVAISkKm2+77FRqIR7/IVSUmWx/kTXjmnOlm6dG6Vw299t8ouHVRnBAgQIECAAIH3EPhzxPgeczbLhwlkUN9KMvJeJiJHAv9s23MsaWKsGL+eQ/ZzZC5l/4vnrWSjVbbYgRsECBAgQIAAgc8VkIB87t4OW9lWQB+BftaJ497Av2y7dR6L3qoTCcneOfw/zEgo6qQiy8ryuizvlcc8z0HqNv9b1P/Gq+tmG0cCBAgQIECAwJsISEDeZKOePM0M+LfmmPVOB/8bA+U4ccwnIJeOWSYBeZ7HmFue57Euy/I81vfr9ZX16nuuCRAgQIAAAQJvJiABebMNe9p08+tNcex5XZoILAyYCcjC7WuKIynId/RYJgl5nsfyfl0W1/nOmdXX2b5sm3UdCRAgQIAAAQJvJiABebMNe9p0M9jPxCKvjx6vWF+OfUVfzT7KRCDP8xgN8jyPW2XNQYp+yvtln2W5cwIECBAgQIDAmwhIQN5ko544zUg66mA/r48er1hnjn1FX4t9RCKQ76yU12WSUJeV96Jd636WrfWb9xwJECBAgAABAm8mIAF5sw170nQz0I/j1ivrbtVbup/t147ZNuvktSMBAgQIECBAgMBzBLYjx+fM1UweJFA+/YiAf+t1NinI9mvHnMNanda9bOdIgAABAgQIECBwv8B25Hj/HIzwhgJ1IL+1hKy/VW/p/lr7+l5e9x6XxlROgAABAgQIECBwvYAE5HrTj+8x/+WrMsDfWnTW3aq3dH+tfX2vvs4+l8rzviMBAgQIECBAgMD9AhKQ+40/aoTyq1fl+dYizwb/a+3re/V1zm2pPO87EiBAgAABAgQI3C8gAbnf+KNGyKcf+f/96A3qe+stYa21r+/V19nnUnnedyRAgAABAgQIELhfQAJyv/HHjZDJRyysDurz+shxDaqnv2yfdfM6j0vled+RAAECBAgQIEDgfgEJyP3GHz1CHdTn9ZHjGlRPf9k+6+Z1HpfK874jAQIECBAgQIDA/QISkPuNP3qE3qC+t94S1lr7+l59nX0uled9RwIECBAgQIAAgfsFJCD3G3/0CL1BfW+9Jaze9mt/GN/bx9IclBMgQIAAAQIECJwXkICcN5y6h96gvrfeEmZv+/qP5Mv+evso2zgnQIAAAQIECBC4VkACcq3ndL31BvW99VqA+VSj/OP3Vr0ok4AsySgnQIAAAQIECDxDQALyjH1421n0Jha99VoQa0lFXT/HiaSlfuW9utw1AQIECBAgQIDAOAEJyDjrjxypN6jvrddCygSklVSU9fNJSYzVep2ZQ6s/ZQQIECBAgAABAvsF2pHa/n60mFSgDOrz/MyxxZj9te6VZVlv6ataeb9s45wAAQIECBAgQGCsgARkrPfHjVYG9Xl+5lgDbT3VyPo99XJe2caRAAECBAgQIEBgvIAEZLz5R414d1CfiUUc115Zb+npR7S9e65r83OPAAECBAgQIEDgfwISED8JjxfYSj5yAb31sr4jAQIECBAgQIDAeAEJyHhzIxIgQIAAAQIECBCYVkACMu3WWzgBAgQIECBAgACB8QISkPHmRiRAgAABAgQIECAwrYAEZNqtt3ACBAgQIECAAAEC4wUkIOPNjUiAAAECBAgQIEBgWgEJyLRbb+EECBAgQIAAAQIExgtIQMabG5EAAQIECBAgQIDAtAISkGm33sIJECBAgAABAgQIjBeQgIw3NyIBAgQIECBAgACBaQUkINNuvYUTIECAAAECBAgQGC8gARlvbkQCBAgQIECAAAEC0wpIQKbdegsnQIAAAQIECBAgMF5AAjLe3IgECBAgQIAAAQIEphWQgEy79RZOgAABAgQIECBAYLyABGS8uREJECBAgAABAgQITCsgAZl26y2cAAECBAgQIECAwHgBCch4cyMSIECAAAECBAgQmFZAAjLt1ls4AQIECBAgQIAAgfECEpDx5kYkQIAAAQIECBAgMK2ABGTarbdwAgQIECBAgAABAuMFJCDjzY1IgAABAgQIECBAYFoBCci0W2/hBAgQIECAAAECBMYLSEDGmxuRAAECBAgQIECAwLQCEpBpt97CCRAgQIAAAQIECIwXkICMNzciAQIECBAgQIAAgWkFJCDTbr2FEyBAgAABAgQIEBgvIAEZb25EAgQIECBAgAABAtMKSECm3XoLJ0CAAAECBAgQIDBeQAIy3tyIBAgQIECAAAECBKYVkIBMu/UWToAAAQIECBAgQGC8gARkvLkRCRAgQIAAAQIECEwrIAGZdustnAABAgQIECBAgMB4AQnIeHMjEiBAgAABAgQIEJhWQAIy7dZbOAECBAgQIECAAIHxAhKQ8eZGJECAAAECBAgQIDCtgARk2q23cAIECBAgQIAAAQLjBSQg482NSIAAAQIECBAgQGBaAQnItFtv4QQIECBAgAABAgTGC0hAxpsbkQABAgQIECBAgMC0AhKQabfewgkQIECAAAECBAiMF5CAjDc3IgECBAgQIECAAIFpBSQg0269hRMgQIAAAQIECBAYLyABGW9uRAIECBAgQIAAAQLTCkhApt16CydAgAABAgQIECAwXkACMt7ciAQIECBAgAABAgSmFZCATLv1Fk6AAAECBAgQIEBgvIAEZLy5EQkQIECAAAECBAhMKyABmXbrLZwAAQIECBAgQIDAeAEJyHhzIxIgQIAAAQIECBCYVkACMu3WWzgBAgQIECBAgACB8QISkPHmRiRAgAABAgQIECAwrYAEZNqtt3ACBAgQIECAAAEC4wUkIOPNjUiAAAECBAgQIEBgWgEJyLRbb+EECBAgQIAAAQIExgtIQMabG5EAAQIECBAgQIDAtAISkGm33sIJECBAgAABAgQIjBeQgIw3NyIBAgQIECBAgACBaQUkINNuvYUTIECAAAECBAgQGC8gARlvbkQCBAgQIECAAAEC0wpIQKbdegsnQIAAAQIECBAgMF5AAjLe3IgECBAgQIAAAQIEphWQgEy79RZOgAABAgQIECBAYLyABGS8uREJECBAgAABAgQITCsgAZl26y2cAAECBAgQIECAwHgBCch4cyMSIECAAAECBAgQmFZAAjLt1ls4AQIECBAgQIAAgfECEpDx5kYkQIAAAQIECBAgMK2ABGTarbdwAgQIECBAgAABAuMFJCDjzY1IgAABAgQIECBAYFoBCci0W2/hBAgQIECAAAECBMYLSEDGmxuRAAECBAgQIECAwLQCEpBpt97CCRAgQIAAAQIECIwXkICMNzciAQIECBAgQIAAgWkFJCDTbr2FEyBAgAABAgQIEBgvIAEZb25EAgQIECBAgAABAtMKSECm3XoLJ0CAAAECBAgQIDBeQAIy3tyIBAgQIECAAAECBKYVkIBMu/UWToAAAQIECBAgQGC8gARkvLkRCRAgQIAAAQIECEwrIAGZdustnAABAgQIECBAgMB4AQnIeHMjEiBAgAABAgQIEJhWQAIy7dZbOAECBAgQIECAAIHxAhKQ8eZGJECAAAECBAgQIDCtgARk2q23cAIECBAgQIAAAQLjBSQg482NSIAAAQIECBAgQGBaAQnItFtv4QQIECBAgAABAgTGC0hAxpsbkQABAgQIECBAgMC0AhKQabfewgkQIECAAAECBAiMF5CAjDc3IgECBAgQIECAAIFpBSQg0269hRMgQIAAAQIECBAYLyABGW9uRAIECBAgQIAAAQLTCkhApt16CydAgAABAgQIECAwXkACMt7ciAQIECBAgAABAgSmFZCATLv1Fk6AAAECBAgQIEBgvIAEZLy5EQkQIECAAAECBAhMKyABmXbrLZwAAQIECBAgQIDAeAEJyHhzIxIgQIAAAQIECBCYVkACMu3WWzgBAgQIECBAgACB8QISkPHmRiRAgAABAgQIECAwrYAEZNqtt3ACBAgQIECAAAEC4wUkIOPNjUiAAAECBAgQIEBgWgEJyLRbb+EECBAgQIAAAQIExgtIQMabG5EAAQIECBAgQIDAtAISkGm33sIJECBAgAABAgQIjBeQgIw3NyIBAgQIECBAgACBaQUkINNuvYUTIECAAAECBAgQGC8gARlvbkQCBAgQIECAAAEC0wpIQKbdegsnQIAAAQIECBAgMF5AAjLe3IgECBAgQIAAAQIEphWQgEy79RZOgAABAgQIECBAYLyABGS8uREJECBAgAABAgQITCsgAZl26y2cAAECBAgQIECAwHgBCch4cyMSIECAAAECBAgQmFZAAjLt1ls4AQIECBAgQIAAgfECEpDx5kYkQIAAAQIECBAgMK2ABGTarbdwAgQIECBAgAABAuMFJCDjzY1IgAABAgQIECBAYFoBCci0W2/hBAgQIECAAAECBMYLSEDGmxuRAAECBAgQIECAwLQCEpBpt97CCRAgQIAAAQIECIwXkICMNzciAQIECBAgQIAAgWkFJCDTbr2FEyBAgAABAgQIEBgvIAEZb25EAgQIECBAgAABAtMKSECm3XoLJ0CAAAECBAgQIDBeQAIy3tyIBAgQIECAAAECBKYVkIBMu/UWToAAAQIECBAgQGC8gARkvLkRCRAgQIAAAQIECEwrIAGZdustnAABAgQIECBAgMB4AQnIeHMjEiBAgAABAgQIEJhWQAIy7dZbOAECBAgQIECAAIHxAhKQ8eZGJECAAAECBAgQIDCtgARk2q23cAIECBAgQIAAAQLjBSQg482NSIAAAQIECBAgQGBaAQnItFtv4QQIECBAgAABAgTGC0hAxpsbkQABAgQIECBAgMC0AhKQabfewgkQIECAAAECBAiMF5CAjDc3IgECBAgQIECAAIFpBSQg0269hRMgQIAAAQIECBAYLyABGW9uRAIECBAgQIAAAQLTCkhApt16CydAgAABAgQIECAwXkACMt7ciAQIECBAgAABAgSmFZCATLv1Fk6AAAECBAgQIEBgvIAEZLy5EQkQIECAAAECBAhMKyABmXbrLZwAAQIECBAgQIDAeAEJyHhzIxIgQIAAAQIECBCYVkACMu3WWzgBAgQIECBAgACB8QISkPHmRiRAgAABAgQIECAwrYAEZNqtt3ACBAgQIECAAAEC4wUkIOPNjUiAAAECBAgQIEBgWgEJyLRbb+EECBAgQIAAAQIExgtIQMabG5EAAQIECBAgQIDAtAISkGm33sIJECBAgAABAgQIjBeQgIw3NyIBAgQIECBAgACBaQUkINNuvYUTIECAAAECBAgQGC8gARlvbkQCBAgQIECAAAEC0wpIQKbdegsnQIAAAQIECBAgMF5AAjLe3IgECBAgQIAAAQIEphWQgEy79RZOgAABAgQIECBAYLyABGS8uREJECBAgAABAgQITCsgAZl26y2cAAECBAgQIECAwHgBCch4cyMSIECAAAECBAgQmFZAAjLt1ls4AQIECBAgQIAAgfECEpDx5kYkQIAAAQIECBAgMK2ABGTarbdwAgQIECBAgAABAuMFJCDjzY1IgAABAgQIECBAYFoBCci0W2/hBAgQIECAAAECBMYLSEDGmxuRAAECBAgQIECAwLQCEpBpt97CCRAgQIAAAQIECIwXkICMNzciAQIECBAgQIAAgWkFJCDTbr2FEyBAgAABAgQIEBgvIAEZb25EAgQIECBAgAABAtMKSECm3XoLJ0CAAAECBAgQIDBeQAIy3tyIBAgQIECAAAECBKYVkIBMu/UWToAAAQIECBAgQGC8gARkvLkRCRAgQIAAAQIECEwrIAGZdustnAABAgQIECBAgMB4AQnIeHMjEiBAgAABAgQIEJhWQAIy7dZbOAECBAgQIECAAIHxAhKQ8eZGJECAAAECBAgQIDCtgARk2q23cAIECBAgQIAAAQLjBSQg482NSIAAAQIECBAgQGBaAQnItFtv4QQIECBAgAABAgTGC0hAxpsbkQABAgQIECBAgMC0AhKQabfewgkQIECAAAECBAiMF5CAjDc3IgECBAgQIECAAIFpBSQg0269hRMgQIAAAQIECBAYLyABGW9uRAIECBAgQIAAAQLTCkhApt16CydAgAABAgQIECAwXkACMt7ciAQIECBAgAABAgSmFZCATLv1Fk6AAAECBAgQIEBgvIAEZLy5EQkQIECAAAECBAhMKyABmXbrLZwAAQIECBAgQIDAeAEJyHhzIxIgQIAAAQIECBCYVkACMu3WWzgBAgQIECBAgACB8QISkPHmRiRAgAABAgQIECAwrYAEZNqtt3ACBAgQIECAAAEC4wUkIOPNjUiAAAECBAgQIEBgWgEJyLRbb+EECBAgQIAAAQIExgtIQMabG5EAAQIECBAgQIDAtAISkGm33sIJECBAgAABAgQIjBeQgIw3NyIBAgQIECBAgACBaQUkINNuvYUTIECAAAECBAgQGC8gARlvbkQCBAgQIECAAAEC0wpIQKbdegsnQIAAAQIECBAgMF5AAjLe3IgECBAgQIAAAQIEphWQgEy79RZOgAABAgQIECBAYLyABGS8uREJECBAgAABAgQITCvwf/5rhHy/6IsHAAAAAElFTkSuQmCC;perimeterSpacing=1;imageBorder=default;" vertex="1" parent="1">
                    <mxGeometry x="20" y="100" width="250" height="150" as="geometry"/>
                </mxCell>
            </root>
        </mxGraphModel>
    </diagram>
    <diagram id="ZEFi_WX_nGAHxZx17VcV" name="ページ2">
        <mxGraphModel dx="2121" dy="1430" grid="1" gridSize="10" guides="1" tooltips="1" connect="1" arrows="1" fold="1" page="1" pageScale="1" pageWidth="827" pageHeight="1169" math="0" shadow="0">
            <root>
                <mxCell id="zaGVqW0ZpysCGTQs3mQF-0"/>
                <mxCell id="zaGVqW0ZpysCGTQs3mQF-1" parent="zaGVqW0ZpysCGTQs3mQF-0"/>
                <mxCell id="zaGVqW0ZpysCGTQs3mQF-2" value="" style="ellipse;whiteSpace=wrap;html=1;" vertex="1" parent="zaGVqW0ZpysCGTQs3mQF-1">
                    <mxGeometry x="140" y="260" width="120" height="80" as="geometry"/>
                </mxCell>
            </root>
        </mxGraphModel>
    </diagram>
</mxfile>